<?xml version="1.0" encoding="UTF-8" standalone="no"?>
<!-- Created with Inkscape (http://www.inkscape.org/) -->

<svg
   width="179.88359mm"
   height="198.26454mm"
   viewBox="0 0 179.88359 198.26455"
   version="1.1"
   id="svg5"
   inkscape:version="1.2 (dc2aedaf03, 2022-05-15)"
   sodipodi:docname="logo.svg"
   xmlns:inkscape="http://www.inkscape.org/namespaces/inkscape"
   xmlns:sodipodi="http://sodipodi.sourceforge.net/DTD/sodipodi-0.dtd"
   xmlns="http://www.w3.org/2000/svg"
   xmlns:svg="http://www.w3.org/2000/svg">
  <sodipodi:namedview
     id="namedview7"
     pagecolor="#ffffff"
     bordercolor="#666666"
     borderopacity="1.0"
     inkscape:showpageshadow="2"
     inkscape:pageopacity="0.0"
     inkscape:pagecheckerboard="true"
     inkscape:deskcolor="#d1d1d1"
     inkscape:document-units="mm"
     showgrid="false"
     inkscape:zoom="1"
     inkscape:cx="284.5"
     inkscape:cy="503.5"
     inkscape:window-width="1732"
     inkscape:window-height="1230"
     inkscape:window-x="15"
     inkscape:window-y="101"
     inkscape:window-maximized="0"
     inkscape:current-layer="layer3" />
  <defs
     id="defs2" />
  <g
     inkscape:groupmode="layer"
     id="layer2"
     inkscape:label="Bock"
     style="display:inline"
     transform="translate(-16.405848,-24.165967)">
    <rect
       style="fill:#faca54;fill-opacity:1;stroke:#222222;stroke-width:11;stroke-linecap:round;stroke-linejoin:round;stroke-dasharray:none;stroke-opacity:1"
       id="rect2732-5"
       width="103.24148"
       height="126.7354"
       x="54.657246"
       y="90.195107"
       inkscape:label="Beer" />
    <rect
       style="fill:#ffffff;stroke:#222222;stroke-width:11;stroke-linecap:square;stroke-linejoin:miter;stroke-dasharray:none;stroke-opacity:1"
       id="rect2732-5-9"
       width="103.24148"
       height="20.758183"
       x="54.657257"
       y="70.367989"
       ry="0"
       inkscape:label="Empty" />
    <rect
       style="opacity:1;fill:none;stroke:#222222;stroke-width:5;stroke-linecap:round;stroke-linejoin:round;stroke-dasharray:none;stroke-opacity:1"
       id="rect3102"
       width="0.79374999"
       height="67.73333"
       x="134.14375"
       y="129.11667"
       inkscape:label="DimpleL" />
    <rect
       style="fill:none;stroke:#222222;stroke-width:5;stroke-linecap:round;stroke-linejoin:round;stroke-dasharray:none;stroke-opacity:1"
       id="rect3102-4"
       width="0.79374999"
       height="19.378513"
       x="105.88111"
       y="177.20689"
       inkscape:label="DimpleS" />
    <g
       inkscape:groupmode="layer"
       id="layer3"
       inkscape:label="Handles">
      <g
         aria-label="{"
         transform="scale(1.0492604,0.95305226)"
         id="text6818"
         style="font-size:130.528px;font-family:'Franklin Gothic Medium';-inkscape-font-specification:'Franklin Gothic Medium, ';letter-spacing:0px;word-spacing:0px;stroke-width:0.264583;fill:#222222;fill-opacity:1"
         inkscape:label="LB">
        <path
           d="m 26.789147,155.87891 q 7.903062,3.8878 7.903062,15.10505 v 18.86537 q 0,7.39319 2.804313,8.92281 2.804312,1.59336 9.878828,1.59336 v 9.75136 l -5.736094,0.12747 q -9.751359,0 -14.212766,-4.20647 -4.461406,-4.20647 -4.461406,-14.14903 v -20.33127 q 0,-6.24596 -2.103234,-8.47667 -2.103235,-2.29443 -5.226219,-2.99551 v -9.24149 q 7.329453,-1.52962 7.329453,-10.64364 v -21.35101 q 0,-9.30522 4.461406,-13.38422 4.525141,-4.079 14.595172,-4.079 1.720828,0 5.353688,0.12747 v 9.75136 q -8.030531,0 -10.388703,2.0395 -2.294438,2.0395 -2.294438,8.22173 v 19.37525 q 0,3.95153 -1.210953,8.09427 -1.147219,4.079 -6.692109,6.88331 z"
           id="path304"
           style="fill:#222222;fill-opacity:1" />
      </g>
      <g
         aria-label="{"
         transform="scale(-1.0492604,0.95305226)"
         id="text6926"
         style="font-size:130.528px;font-family:'Franklin Gothic Medium';-inkscape-font-specification:'Franklin Gothic Medium, ';letter-spacing:0px;word-spacing:0px;stroke-width:0.264583;fill:#222222;fill-opacity:1"
         inkscape:label="RB">
        <path
           d="m -175.92058,155.87891 q 7.90306,3.8878 7.90306,15.10505 v 18.86537 q 0,7.39319 2.80431,8.92281 2.80431,1.59336 9.87883,1.59336 v 9.75136 l -5.73609,0.12747 q -9.75136,0 -14.21277,-4.20647 -4.46141,-4.20647 -4.46141,-14.14903 v -20.33127 q 0,-6.24596 -2.10323,-8.47667 -2.10323,-2.29443 -5.22622,-2.99551 v -9.24149 q 7.32945,-1.52962 7.32945,-10.64364 v -21.35101 q 0,-9.30522 4.46141,-13.38422 4.52514,-4.079 14.59517,-4.079 1.72083,0 5.35369,0.12747 v 9.75136 q -8.03053,0 -10.3887,2.0395 -2.29444,2.0395 -2.29444,8.22173 v 19.37525 q 0,3.95153 -1.21095,8.09427 -1.14722,4.079 -6.69211,6.88331 z"
           id="path299"
           style="fill:#222222;fill-opacity:1" />
      </g>
    </g>
  </g>
  <g
     inkscape:groupmode="layer"
     id="layer4"
     inkscape:label="Foam"
     transform="translate(-16.405848,-24.165967)">
    <path
       id="path15258"
       style="color:#000000;display:inline;fill:#222222;stroke-linecap:round;stroke-linejoin:round;-inkscape-stroke:none;fill-opacity:1"
       d="m 98.03691,24.165967 c -10.344614,0 -19.669169,5.130975 -24.812439,13.220898 -13.319835,3.291021 -24.116874,13.75576 -24.116874,27.458789 0,2.513004 0.371311,4.954197 1.058333,7.257955 a 5.50055,5.50055 0 0 0 0.413928,0.987537 5.5,5.5 0 0 0 5.402771,4.524271 h 28.964641 2.310453 a 5.5,5.5 0 0 0 0.700216,-0.04857 c 0.01158,0.17457 0.01987,0.350627 0.02119,0.529683 0.01384,3.241561 0.03927,4.003871 0.03927,8.285282 v 24.824318 c 0,6.2654 4.85367,11.66389 11.07426,11.66389 6.220591,0 11.074261,-5.39875 11.074261,-11.66389 V 98.371773 c 0.013,-0.06609 0.39937,-1.961086 0.58549,-2.495971 0.80939,-1.613801 2.40305,-2.718706 4.31447,-2.718698 1.98775,-9e-6 3.66003,1.173917 4.43177,2.896465 0.0848,0.318126 0.10096,0.24177 0.14469,0.435632 0.17884,0.524093 0.32378,1.06958 0.32401,1.666048 v 0.0021 l -0.0331,2.880441 c -0.067,6.00338 4.90431,10.90063 10.86135,10.90063 h 0.42582 c 5.95689,0 10.86135,-4.90446 10.86135,-10.86136 V 78.68822 c -0.0149,-0.09635 -0.0339,-0.192036 -0.0568,-0.286804 0.0193,-0.08087 0.0356,-0.162396 0.0491,-0.24443 0,-0.202317 0.008,-0.401335 0.0217,-0.597896 a 5.5,5.5 0 0 0 0.76275,0.05633 h 2.25774 11.73055 a 5.5,5.5 0 0 0 5.43791,-4.720125 5.50055,5.50055 0 0 0 0.37052,-1.016475 c 0.4949,-1.95821 0.75965,-4.007953 0.75965,-6.109188 0,-11.714942 -8.15642,-21.278783 -18.87482,-24.802621 -5.13016,-7.195804 -13.60433,-11.83597 -23.12882,-11.83597 -2.02243,0 -3.98055,0.274792 -5.89835,0.665593 -4.92865,-3.511203 -10.96544,-5.630664 -17.476971,-5.630664 z m 0,10.999845 c 4.83135,0 9.24855,1.746441 12.4535,4.506185 0.0128,0.01098 0.0683,0.06021 0.16795,0.148311 a 5.50055,5.50055 0 0 0 5.26945,1.134815 c 1.72426,-0.533327 3.56802,-0.824239 5.48442,-0.824239 6.58545,0 12.32837,3.478843 15.11897,8.286832 a 5.50055,5.50055 0 0 0 3.40806,2.570386 c 7.02171,1.773979 11.97583,7.369875 12.33982,14.043071 h -3.12126 l -2.38435,-0.142627 a 5.5,5.5 0 0 0 -0.19637,-0.0041 c -0.10874,-0.01018 -0.21882,-0.01654 -0.33021,-0.01654 -3.32549,-2e-6 -6.25814,1.755119 -8.17987,4.206979 -1.92171,2.451859 -2.99206,5.637542 -2.99206,9.082132 0.0338,0.09338 0.0716,0.185271 0.11317,0.275436 -0.0385,0.08384 -0.0737,0.169176 -0.10542,0.255798 v 22.388809 c 0,2.19977 -1.66148,3.86127 -3.86126,3.86127 h -0.42582 c -2.19962,0 -3.88528,-1.66975 -3.86126,-3.82251 l 0.0331,-2.919716 c -0.001,-0.0066 -0.003,-0.01309 -0.004,-0.01964 0.001,-0.0065 0.003,-0.01309 0.004,-0.01964 0,-0.131183 -0.0717,-0.240791 -0.076,-0.371036 -6.8e-4,-0.0038 -0.001,-0.0076 -0.002,-0.01137 0.0245,-1.501445 -0.35546,-2.680771 -0.84181,-4.206979 -0.004,-0.0047 -0.008,-0.0093 -0.0119,-0.01395 -1.80202,-4.317821 -6.03957,-7.39647 -10.96884,-7.396448 -4.14944,-1.8e-5 -7.63848,2.30703 -9.76943,5.57227 -0.19713,0.12197 -0.24937,0.312834 -0.41858,0.471289 -0.181,0.312393 -0.29693,0.501068 -0.43873,0.809769 -0.23556,0.488034 -0.37213,0.994636 -0.54106,1.51567 -0.5424,1.829124 -0.72243,3.373438 -0.72243,3.373438 -0.007,0.08563 -0.01,0.171468 -0.0103,0.257348 v 13.049335 c 0,2.7792 -1.90236,4.6638 -4.074167,4.6638 -2.171804,0 -4.07417,-1.88487 -4.07417,-4.6638 V 86.381807 c 0,-4.253308 -0.02544,-5.087569 -0.03927,-8.203116 0.0033,-0.0072 0.0066,-0.01447 0.0098,-0.0217 0,-0.02124 -0.0097,-0.03924 -0.0098,-0.06046 -7.69e-4,-0.178535 -8.02e-4,-0.267832 -0.0016,-0.463021 -0.03385,-0.09268 -0.07161,-0.183881 -0.113171,-0.273368 -0.158285,-3.123663 -1.103203,-6.032272 -2.869075,-8.285282 -1.842858,-2.351234 -4.616604,-4.057102 -7.773686,-4.193543 a 5.5,5.5 0 0 0 -0.296106,-0.0098 c -0.03689,-4.33e-4 -0.07309,-0.0036 -0.110071,-0.0036 -0.05509,-1e-6 -0.108829,0.0058 -0.163297,0.0083 a 5.5,5.5 0 0 0 -0.06201,0.001 l -2.671155,0.153996 H 60.134831 c -8.45e-4,-0.06448 -0.02739,-0.120745 -0.02739,-0.185519 0,-8.382258 7.266351,-15.505569 17.578255,-17.263545 a 5.50055,5.50055 0 0 0 3.994072,-2.958993 c 2.712655,-5.416448 9.033159,-9.457304 16.357141,-9.457304 z M 83.815039,64.867875 c -1.933032,-2.5e-5 -3.50007,1.567013 -3.500045,3.500045 -2.5e-5,1.933032 1.567013,3.50007 3.500045,3.500045 0.912144,0 1.816872,0.434222 2.672188,1.525488 0.845749,1.079059 1.477647,2.768607 1.491899,4.703072 0.01384,3.241564 0.03927,4.003866 0.03927,8.285282 v 24.824323 c 0,6.2654 4.853664,11.66389 11.07426,11.66389 6.220594,0 11.074264,-5.39875 11.074264,-11.66389 V 98.371773 c 0.013,-0.06609 0.39937,-1.961085 0.58549,-2.495971 0.80939,-1.613802 2.40305,-2.718706 4.31447,-2.718698 1.98775,-9e-6 3.66003,1.173916 4.43177,2.896465 0.0848,0.318127 0.10096,0.24177 0.14469,0.435632 0.17884,0.524094 0.32378,1.069579 0.32401,1.666048 v 0.0021 l -0.0331,2.880441 c -0.067,6.00339 4.9043,10.90063 10.86135,10.90063 h 0.42582 c 5.9569,0 10.86135,-4.90446 10.86135,-10.86136 V 78.68822 c -0.0149,-0.09635 -0.0339,-0.192036 -0.0568,-0.286804 0.0193,-0.08087 0.0356,-0.162396 0.0491,-0.24443 0,-1.962037 0.6464,-3.672267 1.50172,-4.763533 0.85531,-1.091266 1.75797,-1.525488 2.67012,-1.525488 1.93303,2.2e-5 3.50006,-1.567015 3.50004,-3.500045 2e-5,-1.93303 -1.56701,-3.500067 -3.50004,-3.500045 -3.32549,-2e-6 -6.25814,1.755117 -8.17987,4.206979 -1.92172,2.451862 -2.99206,5.637538 -2.99206,9.082132 0.0338,0.09338 0.0716,0.185271 0.11317,0.275436 -0.0385,0.08384 -0.0737,0.169176 -0.10542,0.255798 v 22.38881 c 0,2.19977 -1.66148,3.86127 -3.86126,3.86127 h -0.42582 c -2.19963,0 -3.88528,-1.66975 -3.86126,-3.82251 l 0.0331,-2.919717 c -0.001,-0.0066 -0.003,-0.01309 -0.004,-0.01964 0.001,-0.0065 0.003,-0.01309 0.004,-0.01964 0,-0.131183 -0.0717,-0.24079 -0.076,-0.371036 -6.8e-4,-0.0038 -0.001,-0.0076 -0.002,-0.01137 0.0245,-1.501446 -0.35546,-2.68077 -0.84181,-4.206979 -0.004,-0.0047 -0.008,-0.0093 -0.0119,-0.01395 -1.80202,-4.317825 -6.03956,-7.39647 -10.96884,-7.396448 -4.14944,-1.8e-5 -7.63848,2.307027 -9.76943,5.57227 -0.19713,0.12197 -0.24937,0.312833 -0.41858,0.471288 -0.181,0.312394 -0.29693,0.501068 -0.43873,0.80977 -0.23556,0.488034 -0.37213,0.994635 -0.54106,1.51567 -0.54241,1.829126 -0.72243,3.373438 -0.72243,3.373438 -0.007,0.08563 -0.01,0.171468 -0.0103,0.257348 v 13.049336 c 0,2.7792 -1.90236,4.66379 -4.074171,4.66379 -2.171806,0 -4.07417,-1.88486 -4.07417,-4.66379 V 86.381807 c 0,-4.253313 -0.02544,-5.087565 -0.03927,-8.203116 0.0033,-0.0072 0.0066,-0.01446 0.0098,-0.0217 0,-0.02124 -0.0097,-0.03924 -0.0098,-0.06046 -7.69e-4,-0.178535 -8.51e-4,-0.267832 -0.0016,-0.463021 -0.03385,-0.09268 -0.07161,-0.183881 -0.113171,-0.273368 -0.158285,-3.123666 -1.103201,-6.032269 -2.869075,-8.285282 -1.921729,-2.451862 -4.854378,-4.206979 -8.179863,-4.206979 z m -0.225195,0.0091 -2.841797,0.164063 a 5.5,5.5 0 0 0 -5.169922,5.810546 5.5,5.5 0 0 0 5.808594,5.171875 l 2.841797,-0.166015 a 5.5,5.5 0 0 0 5.171875,-5.810547 5.5,5.5 0 0 0 -5.810547,-5.169922 z m 63.183596,0.01172 a 5.5,5.5 0 0 0 -5.81836,5.162109 5.5,5.5 0 0 0 5.16211,5.81836 l 2.54883,0.152343 a 5.5,5.5 0 0 0 5.81835,-5.160156 5.5,5.5 0 0 0 -5.1621,-5.820312 z M 98.037109,24.166016 c -10.344624,0 -19.669225,5.130772 -24.8125,13.220703 -13.319848,3.291024 -24.117187,13.755941 -24.117187,27.458984 0,2.513006 0.371571,4.954052 1.058594,7.257813 A 5.50055,5.50055 0 0 0 55.4375,76.03125 h 25.630859 a 5.5,5.5 0 0 0 5.5,-5.5 5.5,5.5 0 0 0 -5.5,-5.5 H 60.134766 c -8.45e-4,-0.06448 -0.02734,-0.120773 -0.02734,-0.185547 0,-8.382267 7.26621,-15.505694 17.578125,-17.263672 a 5.50055,5.50055 0 0 0 3.99414,-2.958984 c 2.712658,-5.416453 9.033433,-9.457031 16.357422,-9.457031 4.831357,0 9.248157,1.746112 12.453117,4.505859 0.0128,0.01098 0.0683,0.06033 0.16797,0.148437 a 5.50055,5.50055 0 0 0 5.26953,1.134766 c 1.72426,-0.533327 3.56798,-0.824219 5.48438,-0.824219 6.58546,0 12.32854,3.479116 15.11914,8.28711 a 5.50055,5.50055 0 0 0 3.4082,2.570312 c 7.02172,1.773981 11.97586,7.369767 12.33985,14.042969 h -3.28516 a 5.5,5.5 0 0 0 -5.5,5.5 5.5,5.5 0 0 0 5.5,5.5 h 8.33008 a 5.50055,5.50055 0 0 0 5.33203,-4.152344 c 0.4949,-1.958212 0.75977,-4.008138 0.75977,-6.109375 0,-11.714954 -8.15659,-21.278893 -18.875,-24.802734 -5.13016,-7.195812 -13.60441,-11.835938 -23.12891,-11.835938 -2.02243,0 -3.98064,0.275215 -5.89844,0.666016 -4.92865,-3.511206 -10.96502,-5.630859 -17.476557,-5.630859 z m 47.078121,42.449218 a 5.5,5.5 0 0 0 -5.5,5.5 5.5,5.5 0 0 0 5.5,5.5 h 11.73243 a 5.5,5.5 0 0 0 5.5,-5.5 5.5,5.5 0 0 0 -5.5,-5.5 z m -2.25586,0 a 5.5,5.5 0 0 0 -5.5,5.5 5.5,5.5 0 0 0 5.5,5.5 h 2.25782 a 5.5,5.5 0 0 0 5.49804,-5.5 5.5,5.5 0 0 0 -5.5,-5.5 z m -57.912104,0 a 5.5,5.5 0 0 0 -5.5,5.5 5.5,5.5 0 0 0 5.5,5.5 h 2.310546 a 5.5,5.5 0 0 0 5.5,-5.5 5.5,5.5 0 0 0 -5.5,-5.5 z m -28.964844,0 a 5.5,5.5 0 0 0 -5.5,5.5 5.5,5.5 0 0 0 5.5,5.5 h 28.964844 a 5.5,5.5 0 0 0 5.5,-5.5 5.5,5.5 0 0 0 -5.5,-5.5 z" />
    <path
       style="display:inline;opacity:1;fill:#ffffff;fill-opacity:1;stroke:none;stroke-width:41.5748;stroke-linecap:square;stroke-linejoin:miter;stroke-dasharray:none"
       d="m 369.52056,436.43514 c -3.32868,-1.39681 -5.88492,-3.81013 -7.87294,-7.43278 -1.46993,-2.67857 -1.70968,-10.60533 -2.2231,-73.50236 -0.6275,-76.87368 -0.51101,-75.33026 -6.5909,-87.32834 -2.96292,-5.84703 -10.28974,-13.96457 -15.69787,-17.39201 -8.81165,-5.58443 -8.11482,-5.52366 -61.01021,-5.31995 l -48.87447,0.18823 0.7035,-5.82397 c 1.65563,-13.70619 9.56765,-28.76411 19.92814,-37.92664 11.35822,-10.04488 28.46515,-18.21703 44.80561,-21.40406 8.00022,-1.56036 11.49834,-4.29707 17.90958,-14.01135 7.81902,-11.84733 16.74494,-19.89698 28.17867,-25.41231 25.26903,-12.18911 53.57931,-9.34847 76.22343,7.64822 10.673,8.01116 13.60034,8.65553 26.38473,5.80785 29.454,-6.56076 57.35716,3.76948 73.20076,27.10022 4.96576,7.31241 7.53026,9.25952 15.7186,11.93441 21.99813,7.18615 37.77516,22.44783 42.83901,41.4397 0.73324,2.75 1.3385,6.2429 1.34503,7.76199 l 0.0119,2.76199 -15.25,-0.26199 c -14.84645,-0.25506 -15.40692,-0.1885 -21.18013,2.51515 -11.40422,5.34072 -19.42305,14.26692 -24.77377,27.57704 -2.23365,5.55628 -2.27778,6.48127 -2.78287,58.32414 -0.49914,51.23168 -0.56985,52.75411 -2.57502,55.43821 -3.78713,5.06942 -7.06468,6.81204 -12.81219,6.81204 -6.03879,0 -9.7378,-1.91967 -12.52254,-6.4988 -1.35329,-2.22531 -1.95614,-6.003 -2.42497,-15.19567 -0.85659,-16.79614 -3.70831,-24.98728 -11.99395,-34.45088 -11.91223,-13.60577 -34.4411,-18.26523 -50.95328,-10.53824 -12.67271,5.93027 -22.35387,17.47481 -25.71541,30.66498 -1.78594,7.00763 -2.0159,11.11872 -2.0159,36.03811 0,27.19857 -0.0744,28.27367 -2.25,32.5315 -1.2375,2.42184 -3.41396,5.25015 -4.83658,6.28512 -3.12241,2.27162 -9.49319,3.09704 -12.89286,1.67045 z"
       id="path15331"
       inkscape:label="fill"
       transform="scale(0.26458333)" />
  </g>
</svg>
